<svg xmlns="http://www.w3.org/2000/svg" xmlns:xlink="http://www.w3.org/1999/xlink" version="1.1" id="Layer_1" x="0px" y="0px" viewBox="0 0 1198 1198" style="enable-background:new 0 0 1198 1198;" xml:space="preserve">
<style type="text/css">
	.st0{fill:none;}
	
		.st1{opacity:0.6;fill:none;stroke:#B5B5BC;stroke-width:1.5;stroke-linecap:round;stroke-linejoin:round;enable-background:new    ;}
	.st2{opacity:0.6;}
	.st3{fill:none;stroke:#B5B5BC;stroke-width:1.5;}
	.st4{fill:#F8FAFC;}
	.st5{fill:none;stroke:#8E3F40;stroke-width:2.5;stroke-linecap:round;stroke-linejoin:round;}
	.st6{fill:#8E3F40;}
	.st7{fill:none;stroke:#F3A91D;stroke-width:2;stroke-linecap:round;stroke-linejoin:round;}
	.st8{fill:none;stroke:#8E3F40;stroke-width:2.5;stroke-miterlimit:10;}
	.st9{fill:#8E3F40;stroke:#8E3F40;stroke-width:2.5;stroke-linecap:round;stroke-linejoin:round;}
	.st10{fill:none;stroke:#8E3F40;stroke-width:2;stroke-linecap:round;stroke-linejoin:round;}
	.st11{fill:#F8FAFC;enable-background:new    ;}
	.st12{fill:#8E3F40;stroke:#8E3F40;}
	.st13{fill:none;stroke:#8E3F40;stroke-linecap:round;stroke-linejoin:round;}
	.st14{fill:#8E3F40;stroke:#8E3F40;stroke-linecap:round;stroke-linejoin:round;}
</style>
<g id="Group_1488" transform="translate(-786 33)">
	<g id="Ellipse_46" transform="translate(786 -33)">
		<circle class="st0" cx="599" cy="599" r="599"/>
		<path class="st1" d="M28.5,417.5C105.4,175.7,331.7,0.5,599,0.5c330.5,0,598.5,268,598.5,598.5s-268,598.5-598.5,598.5    c-265.9,0-491.3-173.4-569.3-413.2"/>
	</g>
	<g id="Ellipse_47" transform="translate(1050 232)" class="st2">
		<circle class="st0" cx="334.5" cy="334.5" r="334.5"/>
		<circle class="st3" cx="334.5" cy="334.5" r="334"/>
	</g>
	<g id="Group_1318" transform="translate(1299.221 490.604)">
		<g id="Group_1316" transform="translate(7.11 7.107)">
			<path id="Rectangle_325" class="st4" d="M14-2h145.2c7.7,0,14,6.3,14,14v97.3c0,7.7-6.3,14-14,14H14c-7.7,0-14-6.3-14-14V12     C0,4.3,6.3-2,14-2z"/>
			<line id="Line_143" class="st0" x1="0" y1="88.9" x2="173.2" y2="88.9"/>
			<rect id="Rectangle_326" x="65.9" y="123.3" class="st4" width="41.5" height="22.6"/>
			<path id="Rectangle_327" class="st4" d="M41.2,145.9H132c0.7,0,1.2,0.5,1.2,1.2v14.4c0,0.7-0.5,1.2-1.2,1.2H41.2     c-0.7,0-1.2-0.5-1.2-1.2v-14.4C40,146.5,40.6,145.9,41.2,145.9z"/>
		</g>
		<g id="Group_1317">
			<path id="Path_1420" class="st5" d="M2.8,4.1C5,1.5,8.3,0,11.7,0h149.9c6.4,0,11.7,5.2,11.7,11.7v102c0,6.4-5.2,11.7-11.7,11.7     H11.7c-6.4,0-11.7-5.2-11.7-11.7l0,0V19.5"/>
			<line id="Line_144" class="st5" x1="0" y1="97.9" x2="173.2" y2="97.9"/>
			<rect id="Rectangle_328" x="65.9" y="125.3" class="st5" width="41.5" height="22.6"/>
			<path id="Rectangle_329" class="st5" d="M41.2,147.9H132c0.7,0,1.2,0.5,1.2,1.2v14.4c0,0.7-0.5,1.2-1.2,1.2H41.2     c-0.7,0-1.2-0.5-1.2-1.2v-14.4C40,148.5,40.6,147.9,41.2,147.9z"/>
		</g>
		<path id="Path_1421" class="st6" d="M173.2,98.6v10.3c0,12.6-5.1,16.4-16.4,16.4H16.4c-4.3,0-9.5-0.7-12.6-3.8    c-3.1-3.1-3.8-8.2-3.8-12.6V98.6H173.2z"/>
	</g>
	<g id="Group_1321" transform="translate(974 365.068)">
		<path id="Path_1422_1_" class="st4" d="M55.2,97c-12.3,12.3-12.4,32.3,0,44.6c5.9,5.9,13.9,9.3,22.3,9.3c16.7,0,35.2,0.2,37.1,0.2    s20.4-0.2,37.1-0.2c17.4,0,31.5-14.1,31.5-31.5S169,87.8,151.6,87.8c-1.9,0-3.8,0.2-5.7,0.5c-1.2-17.4-16.2-30.4-33.6-29.2    c-15.6,1.1-28.1,13.5-29.2,29.1c-1.9-0.3-3.8-0.5-5.7-0.5c-4.5,0-8.9,1-12.9,2.8"/>
		<path id="Path_1422" class="st5" d="M50.2,94c-12.3,12.3-12.4,32.3,0,44.6c5.9,5.9,13.9,9.3,22.3,9.3c16.7,0,35.2,0.2,37.1,0.2    s20.4-0.2,37.1-0.2c17.4,0,31.5-14.1,31.5-31.5S164,84.8,146.6,84.8c-1.9,0-3.8,0.2-5.7,0.5c-1.2-17.4-16.2-30.4-33.6-29.2    c-15.6,1.1-28.1,13.5-29.2,29.1c-1.9-0.3-3.8-0.5-5.7-0.5c-4.5,0-8.9,1-12.9,2.8"/>
		<g id="Group_1320">
			<g id="Group_1319">
				<path id="Path_1423" class="st7" d="M102.1,217.4c-60-3.7-105.6-55.3-101.9-115.3c1.6-26.5,12.9-51.5,31.7-70.3"/>
				<path id="Path_1424" class="st7" d="M132.6,215c-4.7,1.1-9.6,1.8-14.4,2.2"/>
				<path id="Path_1425" class="st7" d="M200.8,166.9c-11,17.5-26.8,31.4-45.4,40.3"/>
				<path id="Path_1426" class="st7" d="M214.6,134.4c-0.8,3.4-1.8,6.7-2.9,9.9"/>
				<path id="Path_1427" class="st7" d="M90,1.6c59.3-10.3,115.7,29.3,126,88.6c1.1,6.1,1.6,12.4,1.6,18.6c0,3.4-0.2,6.7-0.5,10"/>
				<path id="Path_1428" class="st7" d="M52.5,15.7c3.7-2.3,7.6-4.3,11.5-6.1"/>
			</g>
			<path id="Path_1429" class="st7" d="M108.8,0c60.1,0,108.8,48.7,108.8,108.8s-48.7,108.8-108.8,108.8S0,168.9,0,108.8"/>
		</g>
	</g>
	<g id="Group_1331" transform="translate(1552.189 639.903)">
		<g id="Group_1323" transform="translate(61.535 35.928)">
			<path id="Path_1431" class="st4" d="M55.6,120.7H10.4C4.7,120.7,0,116,0,110.3V10.4C0,4.7,4.7,0,10.4,0h45.2     C61.3,0,66,4.7,66,10.4v99.9C66,116,61.3,120.7,55.6,120.7z"/>
		</g>
		<g id="Group_1322" transform="translate(57.182 31.574)">
			<path id="Path_1430" class="st8" d="M55.6,120.7H10.4C4.7,120.7,0,116,0,110.3V10.4C0,4.7,4.7,0,10.4,0h45.2     C61.3,0,66,4.7,66,10.4v99.9C66,116,61.3,120.7,55.6,120.7z"/>
		</g>
		<g id="Group_1327" transform="translate(78.863 82.469)">
			<g id="Group_1324" transform="translate(0 8.46)">
				<path id="Path_1432" class="st6" d="M1,17.3c-0.5,0-1-0.4-1-1V1c0-0.5,0.4-1,1-1c0.5,0,1,0.4,1,1v15.3C2,16.8,1.5,17.3,1,17.3z"/>
			</g>
			<g id="Group_1325" transform="translate(10.325 3.473)">
				<path id="Path_1433" class="st6" d="M1,22.3c-0.5,0-1-0.4-1-1l0,0V1c0-0.5,0.4-1,1-1s1,0.4,1,1l0,0v20.3C2,21.8,1.5,22.3,1,22.3      z"/>
			</g>
			<g id="Group_1326" transform="translate(20.64)">
				<path id="Path_1434" class="st6" d="M1,25.7c-0.5,0-1-0.4-1-1V1c0-0.5,0.4-1,1-1c0.5,0,1,0.4,1,1l0,0v23.8      C2,25.3,1.5,25.7,1,25.7z"/>
			</g>
		</g>
		<g id="Group_1328" transform="translate(57.192 31.574)">
			<path id="Path_1435" class="st6" d="M15.3,11.5c0.6,0,1-0.4,1-1s-0.4-1-1-1s-1,0.4-1,1l0,0C14.2,11.1,14.7,11.5,15.3,11.5z"/>
			<path id="Path_1436" class="st6" d="M66,19.8v-9.4C66,4.7,61.3,0,55.6,0H10.4C4.7,0,0,4.7,0,10.4v9.4H66z M25.4,9.5h15.2     c0.5,0,1,0.4,1,1s-0.4,1-1,1H25.4c-0.5,0-1-0.4-1-1S24.8,9.5,25.4,9.5z M15.3,7.5c1.7,0,3,1.3,3,3s-1.3,3-3,3s-3-1.3-3-3     C12.3,8.9,13.6,7.5,15.3,7.5z"/>
			<path id="Path_1437" class="st6" d="M0,110.3c0,5.7,4.7,10.4,10.4,10.4h45.2c5.7,0,10.4-4.7,10.4-10.4v-9.4H0V110.3z M25.4,109.2     h15.2c0.5,0,1,0.4,1,1s-0.4,1-1,1H25.4c-0.5,0-1-0.4-1-1S24.8,109.2,25.4,109.2z"/>
		</g>
		<g id="Group_1330">
			<g id="Group_1329">
				<path id="Path_1438" class="st7" d="M85.9,182.9c-50.4-3.1-88.8-46.5-85.7-97C1.5,63.6,11,42.6,26.8,26.8"/>
				<path id="Path_1439" class="st7" d="M111.5,180.8c-4,0.9-8,1.5-12.1,1.9"/>
				<path id="Path_1440" class="st7" d="M168.9,140.3c-9.3,14.7-22.5,26.4-38.2,33.9"/>
				<path id="Path_1441" class="st7" d="M180.5,113.1c-0.7,2.8-1.5,5.6-2.5,8.4"/>
				<path id="Path_1442" class="st7" d="M75.7,1.4c49.8-8.7,97.3,24.6,106,74.5c0.9,5.2,1.4,10.4,1.4,15.7c0,2.8-0.1,5.6-0.4,8.4"/>
				<path id="Path_1443" class="st7" d="M44.2,13.2c3.1-1.9,6.4-3.6,9.7-5.1"/>
			</g>
			<path id="Path_1444" class="st7" d="M91.5,0C142.1,0,183,41,183,91.5S142,183,91.5,183S0,142,0,91.5"/>
		</g>
	</g>
	<g id="Group_1333" transform="translate(1382.766 223)">
		<g id="Group_1332">
			<path id="Path_1445" class="st7" d="M57.6,122.5C23.7,120.5-2,91.4,0.1,57.6C1,42.6,7.4,28.5,18,18"/>
			<path id="Path_1446" class="st7" d="M74.7,121.2c-2.7,0.6-5.4,1-8.1,1.2"/>
			<path id="Path_1447" class="st7" d="M113.2,94.1c-6.2,9.8-15.1,17.7-25.6,22.7"/>
			<path id="Path_1448" class="st7" d="M120.9,75.8c-0.5,1.9-1,3.8-1.6,5.6"/>
			<path id="Path_1449" class="st7" d="M50.7,0.9c33.4-5.8,65.2,16.5,71,49.9c0.6,3.5,0.9,7,0.9,10.5c0,1.9-0.1,3.8-0.3,5.6"/>
			<path id="Path_1450" class="st7" d="M29.6,8.8c2.1-1.3,4.3-2.4,6.5-3.4"/>
		</g>
		<path id="Path_1451" class="st7" d="M61.3,0c33.9,0,61.3,27.5,61.3,61.3c0,33.9-27.5,61.3-61.3,61.3C27.5,122.7,0,95.2,0,61.3l0,0    "/>
	</g>
	<g id="Group_1338" transform="translate(1129.707 671.037)">
		<g id="Group_1335" transform="translate(25.187 28.504)">
			<path id="Path_1452" class="st4" d="M41.6,1.4C23.1,1.4,8,16.3,8,34.9c0,6.3,1.8,12.6,5.2,17.9l-9.7,9.7c0.3,0.4,0.6,0.7,0.9,1     c6,6,15.5,6.6,22.2,1.3c16.6,8.3,36.7,1.6,45-15s1.6-36.7-15-45C51.9,2.6,46.8,1.4,41.6,1.4L41.6,1.4z"/>
			<path id="Path_1453" class="st5" d="M10.3,14.7c-7.5,11-7.7,25.4-0.6,36.7L0,61.1c0.3,0.4,0.6,0.7,0.9,1c6,6,15.5,6.6,22.2,1.3     c16.6,8.3,36.7,1.5,45-15c8.3-16.6,1.5-36.7-15-45c-12.3-6-27.1-4-37.3,5.1"/>
			<g id="Group_1334" transform="translate(19.318 30.949)">
				<path id="Path_1454" class="st6" d="M7.8,3.9c0,2.2-1.7,3.9-3.9,3.9C1.8,7.8,0,6.1,0,3.9C0,1.8,1.7,0,3.9,0l0,0      C6,0,7.8,1.7,7.8,3.9z"/>
				<path id="Path_1455" class="st6" d="M22.7,3.9c0,2.2-1.7,3.9-3.9,3.9s-3.9-1.7-3.9-3.9S16.6,0,18.8,0l0,0      C20.9,0,22.7,1.7,22.7,3.9L22.7,3.9z"/>
				<path id="Path_1456" class="st6" d="M37.5,3.9c0,2.2-1.7,3.9-3.9,3.9s-3.9-1.7-3.9-3.9S31.5,0,33.6,0l0,0      C35.8,0,37.5,1.7,37.5,3.9z"/>
			</g>
		</g>
		<g id="Group_1337">
			<g id="Group_1336">
				<path id="Path_1457" class="st7" d="M58.9,125.3C24.3,123.2-2,93.5,0.1,58.9C1,43.6,7.5,29.2,18.4,18.4"/>
				<path id="Path_1458" class="st7" d="M76.4,124c-2.7,0.6-5.5,1-8.3,1.3"/>
				<path id="Path_1459" class="st7" d="M115.8,96.2c-6.4,10.1-15.4,18.1-26.2,23.2"/>
				<path id="Path_1460" class="st7" d="M123.7,77.5c-0.5,1.9-1,3.9-1.7,5.7"/>
				<path id="Path_1461" class="st7" d="M51.9,0.9c34.1-6,66.7,16.9,72.7,51c0.6,3.6,0.9,7.2,0.9,10.8c0,1.9-0.1,3.9-0.3,5.7"/>
				<path id="Path_1462" class="st7" d="M30.3,9c2.1-1.3,4.4-2.5,6.6-3.5"/>
			</g>
			<path id="Path_1463" class="st7" d="M62.7,0c34.6,0,62.7,28.1,62.7,62.7s-28.1,62.7-62.7,62.7C28.1,125.5,0,97.4,0,62.7l0,0"/>
		</g>
	</g>
	<g id="Group_1343" transform="translate(1586.098 352.682)">
		<path id="Path_1464" class="st4" d="M109.6,44H44.1c-2.6,0-5,1.6-6.1,4l-0.5,2.2v52.5c0,3.6,2.9,6.6,6.6,6.6h56.7    c2.2,0,4.3-0.9,5.8-2.4l7.3-7.3c1.5-1.5,2.3-3.5,2.3-5.7V50.5C116.2,46.9,113.3,44,109.6,44z"/>
		<g id="Group_1339" transform="translate(34.31 41.715)">
			<path id="Path_1465" class="st5" d="M39.3,65.3h27.4V53.2h12V6.6C78.7,3,75.8,0,72.1,0l0,0H39.3"/>
			<path id="Path_1466" class="st9" d="M78.7,53.2l-12,12V53.1L78.7,53.2z"/>
			<path id="Path_1467" class="st5" d="M39.4,0H6.6C4,0,1.6,1.6,0.5,4"/>
			<path id="Path_1468" class="st5" d="M0,10.9v47.8c0,3.6,2.9,6.6,6.6,6.6l0,0h32.8"/>
		</g>
		<g id="Group_1340" transform="translate(41.855 65.69)">
			<line id="Line_145" class="st10" x1="38.1" y1="0" x2="63" y2="0"/>
			<line id="Line_146" class="st10" x1="38.1" y1="8.7" x2="63" y2="8.7"/>
			<line id="Line_147" class="st10" x1="38.1" y1="17.3" x2="63" y2="17.3"/>
			<line id="Line_148" class="st10" x1="0" y1="0" x2="24.9" y2="0"/>
			<line id="Line_149" class="st10" x1="0" y1="8.7" x2="24.9" y2="8.7"/>
			<line id="Line_150" class="st10" x1="0" y1="17.3" x2="24.9" y2="17.3"/>
		</g>
		<line id="Line_151" class="st10" x1="73.7" y1="55.4" x2="73.7" y2="93.3"/>
		<g id="Group_1342">
			<g id="Group_1341">
				<path id="Path_1469" class="st7" d="M70,149c-41.1-2.5-72.4-37.9-69.8-79C1.3,51.8,9,34.7,21.8,21.8"/>
				<path id="Path_1470" class="st7" d="M90.9,147.3c-3.3,0.7-6.6,1.2-9.9,1.5"/>
				<path id="Path_1471" class="st7" d="M137.6,114.3c-7.6,12-18.4,21.5-31.1,27.6"/>
				<path id="Path_1472" class="st7" d="M147,92.1c-0.6,2.3-1.2,4.6-2,6.8"/>
				<path id="Path_1473" class="st7" d="M61.6,1.1c4.3-0.7,8.6-1.1,13-1.1c41.2,0,74.6,33.4,74.6,74.6c0,2.3-0.1,4.6-0.3,6.8"/>
				<path id="Path_1474" class="st7" d="M36,10.7c2.5-1.5,5.2-2.9,7.9-4.2"/>
			</g>
			<path id="Path_1475" class="st7" d="M74.6,0c41.2,0,74.6,33.4,74.6,74.6s-33.4,74.6-74.6,74.6C33.4,149.1,0,115.7,0,74.6"/>
		</g>
	</g>
	<g id="Group_1345" transform="translate(1221.063 396.397)">
		<g id="Group_1344">
			<path id="Path_1476" class="st7" d="M158,336.3C65.2,330.6-5.4,250.8,0.3,158c2.5-41,19.9-79.6,49-108.7"/>
			<path id="Path_1477" class="st7" d="M205.1,332.6c-7.3,1.6-14.8,2.8-22.3,3.4"/>
			<path id="Path_1478" class="st7" d="M310.7,258.1c-17.1,27-41.4,48.6-70.3,62.3"/>
			<path id="Path_1479" class="st7" d="M332,208c-1.3,5.2-2.8,10.4-4.5,15.4"/>
			<path id="Path_1480" class="st7" d="M139.2,2.5c91.7-16,178.9,45.3,195,137c1.7,9.5,2.5,19.2,2.5,28.9c0,5.2-0.2,10.3-0.7,15.4"/>
			<path id="Path_1481" class="st7" d="M81.2,24.3c5.7-3.5,11.7-6.6,17.8-9.4"/>
		</g>
		<path id="Path_1482" class="st7" d="M168.3,0c93,0,168.3,75.4,168.3,168.3c0,93-75.4,168.3-168.3,168.3    C75.4,336.7,0,261.3,0,168.3"/>
	</g>
	<g id="Group_1346" transform="translate(1413.623 262.414)">
		<path id="Path_1483" class="st4" d="M1,1.5C1.8,0.5,3,0,4.3,0h61.8c2.4,0,4.4,1.9,4.4,4.4l0,0v38.1c0,2.4-2,4.4-4.4,4.4H4.4    c-2.4,0-4.4-2-4.4-4.4V3.8l0.3-1.3L1,1.5z"/>
	</g>
	<path id="Path_1484" class="st5" d="M1468,260.3h7.5c2.4,0,4.4,1.9,4.4,4.4l0,0v38.1c0,2.4-1.9,4.4-4.4,4.4l0,0h-61.8   c-2.4,0-4.4-1.9-4.4-4.4l0,0v-35.2"/>
	<line id="Line_152" class="st5" x1="1427.1" y1="260.3" x2="1462.1" y2="260.3"/>
	<path id="Path_1485" class="st5" d="M1410.4,261.8c0.8-1,2-1.5,3.3-1.5h7.5"/>
	<g id="Group_1347" transform="translate(1418.762 272.246)">
		<path id="Path_1486" class="st6" d="M0.2,15.9c0.1-0.2,0.3-0.3,0.6-0.3h10.7c0.5,0.1,0.8,0.5,0.8,0.9v8.2c0,0.5-0.3,0.9-0.8,0.9    H0.8c-0.5,0-0.8-0.4-0.8-0.8v-7.6"/>
		<path id="Path_1487" class="st6" d="M19.9,15.9c0.1-0.2,0.3-0.3,0.6-0.3h10.7c0.5,0.1,0.8,0.5,0.8,0.9v8.2c0,0.5-0.3,0.9-0.8,0.9    H20.5c-0.5-0.1-0.8-0.5-0.8-0.9v-7.6"/>
		<path id="Path_1488" class="st6" d="M0.2,0.3C0.3,0.1,0.5,0,0.8,0h10.7c0.5,0.1,0.8,0.5,0.8,0.9v8.3c0,0.5-0.3,0.9-0.8,0.9H0.8    C0.3,10.1,0,9.7,0,9.2V1.6"/>
		<path id="Path_1489" class="st6" d="M19.9,0.3C20,0.1,20.2,0,20.5,0h10.7C31.7,0.1,32,0.5,32,0.9v8.3c0,0.5-0.3,0.9-0.8,0.9H20.5    C20,10,19.7,9.6,19.7,9.2V1.6"/>
		<path id="Path_1490" class="st6" d="M39.6,0.3C39.7,0.1,39.9,0,40.2,0h10.7c0.5,0.1,0.8,0.5,0.8,0.9v8.3c0,0.5-0.3,0.9-0.8,0.9    H40.2c-0.5-0.1-0.8-0.5-0.8-0.9V1.6"/>
	</g>
	<g id="Group_1348" transform="translate(1424.174 255.926)">
		<line id="Line_153" class="st5" x1="0" y1="0" x2="0" y2="8.2"/>
		<line id="Line_154" class="st5" x1="40.8" y1="0" x2="40.8" y2="8.2"/>
	</g>
	<g id="Group_1351" transform="translate(1222.43 301.222)">
		<path id="Path_1491" class="st4" d="M36.1,30.8c-10.5,0-19,8.5-19,19c0,3.6,1,7.1,2.9,10.2l-5.5,5.5c0.2,0.2,0.3,0.4,0.5,0.6    c3.4,3.4,8.8,3.7,12.6,0.8c9.4,4.7,20.8,0.9,25.5-8.5s0.9-20.8-8.5-25.5C42,31.5,39.1,30.8,36.1,30.8L36.1,30.8z"/>
		<path id="Path_1492" class="st11" d="M74.9,47.6c5.6-8.9,2.9-20.6-5.9-26.3s-20.6-2.9-26.3,5.9c-0.8,1.3-1.5,2.7-2,4.1    c10.2,2.5,16.4,12.9,13.8,23c-0.1,0.5-0.3,1-0.4,1.5c4.4,1.1,9.1,0.6,13.2-1.4c3.8,3,9.2,2.6,12.6-0.8c0.2-0.2,0.4-0.4,0.5-0.6    L74.9,47.6z"/>
		<path id="Path_1493" class="st8" d="M34,28.7c-10.5,0-19,8.5-19,19c0,3.6,1,7.1,2.9,10.2l-5.2,5.2c-0.3,0.3,0,0.7,0.2,0.9    c3.4,3.4,8.8,3.7,12.6,0.8c9.4,4.7,20.8,0.9,25.5-8.5s0.9-20.8-8.5-25.5C39.9,29.4,37,28.7,34,28.7L34,28.7z"/>
		<path id="Path_1494" class="st6" d="M72.9,45.5c5.6-8.9,2.9-20.7-6-26.3s-20.7-2.9-26.3,6c-0.8,1.3-1.5,2.7-1.9,4.1    c10.2,2.5,16.4,12.9,13.8,23c-0.1,0.5-0.3,1-0.4,1.5c4.4,1.1,9.1,0.6,13.2-1.4c3.8,3,9.2,2.6,12.6-0.8c0.2-0.2,0.4-0.4,0.5-0.6    L72.9,45.5z"/>
		<g id="Group_1350">
			<g id="Group_1349">
				<path id="Path_1495" class="st7" d="M42.2,89.8C17.4,88.2-1.4,66.9,0.1,42.2c0.7-10.9,5.3-21.2,13.1-29"/>
				<path id="Path_1496" class="st7" d="M54.7,88.8c-2,0.4-3.9,0.7-6,0.9"/>
				<path id="Path_1497" class="st7" d="M82.9,68.9c-4.6,7.2-11.1,13-18.8,16.6"/>
				<path id="Path_1498" class="st7" d="M88.6,55.5c-0.3,1.4-0.7,2.8-1.2,4.1"/>
				<path id="Path_1499" class="st7" d="M37.1,0.7C39.7,0.2,42.3,0,44.9,0c24.8,0,44.9,20.1,44.9,44.9c0,1.4-0.1,2.8-0.2,4.1"/>
				<path id="Path_1500" class="st7" d="M21.7,6.5c1.5-0.9,3.1-1.8,4.8-2.5"/>
			</g>
			<path id="Path_1501" class="st7" d="M44.9,0c24.8,0,44.9,20.1,44.9,44.9s-20.1,45-44.9,45S0,69.7,0,44.9"/>
		</g>
	</g>
	<g id="Group_1354" transform="translate(1401.082 770.289)">
		<g id="Group_1353">
			<g id="Group_1352">
				<path id="Path_1502" class="st7" d="M30.8,65.5C12.7,64.4-1.1,48.9,0.1,30.8c0.5-8,3.9-15.5,9.5-21.2"/>
				<path id="Path_1503" class="st7" d="M40,64.8c-1.4,0.3-2.9,0.5-4.3,0.7"/>
				<path id="Path_1504" class="st7" d="M60.5,50.3c-3.3,5.3-8.1,9.5-13.7,12.1"/>
				<path id="Path_1505" class="st7" d="M64.7,40.5c-0.2,1-0.5,2-0.9,3"/>
				<path id="Path_1506" class="st7" d="M27.1,0.5C45-2.6,62,9.3,65.1,27.2c0.3,1.9,0.5,3.7,0.5,5.6c0,1,0,2-0.1,3"/>
				<path id="Path_1507" class="st7" d="M15.8,4.7c1.1-0.7,2.3-1.3,3.5-1.8"/>
			</g>
			<path id="Path_1508" class="st7" d="M32.8,0c18.1,0,32.8,14.7,32.8,32.8S50.9,65.6,32.8,65.6S0,50.9,0,32.8"/>
		</g>
	</g>
	<g id="Group_1355" transform="translate(1423.023 783.142)">
		<path id="Path_1509" class="st4" d="M14.9,26.5L21,15.4c1.2-2.1,1.5-4.6,1.1-7l0,0C21.2,3.5,16.9,0,11.9,0h-1.5    c-5,0-9.2,3.5-10.2,8.4l0,0c-0.5,2.4-0.1,4.8,1.1,7l6.1,11.1H14.9z"/>
		<line id="Line_155" class="st4" x1="11.1" y1="29.1" x2="11.1" y2="29.1"/>
		<path id="Path_1510" class="st4" d="M13.6,26.5H8.7c-1,0-1.8,0.8-1.9,1.8l0,0c0,1,0.8,1.8,1.9,1.8h4.8c1,0,1.8-0.8,1.9-1.8l0,0    C15.4,27.3,14.6,26.5,13.6,26.5z"/>
		<path id="Path_1511" class="st4" d="M13.6,30.2H8.7c-1,0-1.8,0.8-1.9,1.8l0,0c0,1,0.8,1.8,1.9,1.9h4.8c1,0,1.8-0.8,1.9-1.9l0,0    C15.4,31,14.6,30.2,13.6,30.2z"/>
	</g>
	<g id="Group_1357" transform="translate(1422.441 785.535)">
		<path id="Path_1512" class="st5" d="M2.6,3.7c-1.2,1.4-2,3.1-2.4,4.9l0,0c-0.5,2.4-0.1,5,1.1,7.1l6.2,11.4h7.8l6.2-11.4    c1.2-2.2,1.6-4.7,1.1-7.1l0,0c-1-5-5.4-8.6-10.4-8.6h-1.6c-2,0-4,0.6-5.7,1.7"/>
		<g id="Group_1356" transform="translate(6.089 12.248)">
			<path id="Path_1513" class="st5" d="M3.8,15V1.9C3.8,0.9,3,0,1.9,0l0,0C0.9,0,0,0.9,0,1.9v0.3c0,1.1,0.9,1.9,1.9,1.9h5.2"/>
			<path id="Path_1514" class="st5" d="M6.8,15V1.9c0-1,0.9-1.9,2-1.9l0,0l0,0c1.1,0,1.9,0.9,1.9,1.9v0.3c0,1.1-0.9,1.9-1.9,1.9H3.6     "/>
		</g>
		<path id="Path_1515" class="st12" d="M13.9,27.2H9c-1,0-1.9,0.9-1.9,1.9l0,0c0,1,0.8,1.9,1.9,1.9h4.9c1,0,1.9-0.8,1.9-1.9l0,0    C15.8,28,15,27.2,13.9,27.2z"/>
		<path id="Path_1516" class="st6" d="M13.9,30.9H9c-1,0-1.9,0.9-1.9,1.9l0,0c0,1,0.8,1.9,1.9,1.9h4.9c1,0,1.9-0.9,1.9-1.9l0,0    C15.8,31.8,15,30.9,13.9,30.9z"/>
		<path id="Path_1517" class="st13" d="M13.9,27.2H9c-1,0-1.9,0.9-1.9,1.9l0,0c0,1,0.8,1.9,1.9,1.9h4.9c1,0,1.9-0.8,1.9-1.9l0,0    C15.8,28,15,27.2,13.9,27.2z"/>
		<path id="Path_1518" class="st14" d="M13.9,30.9H9c-1,0-1.9,0.9-1.9,1.9l0,0c0,1,0.8,1.9,1.9,1.9h4.9c1,0,1.9-0.9,1.9-1.9l0,0    C15.8,31.8,15,30.9,13.9,30.9z"/>
	</g>
</g>
</svg>